<?xml version="1.0" encoding="utf-8"?>
<!-- Generator: Adobe Illustrator 21.1.0, SVG Export Plug-In . SVG Version: 6.00 Build 0)  -->
<svg version="1.1" id="Ebene_1" xmlns="http://www.w3.org/2000/svg" xmlns:xlink="http://www.w3.org/1999/xlink" x="0px" y="0px"
	 viewBox="0 0 900 900" style="enable-background:new 0 0 900 900;" xml:space="preserve">
<style type="text/css">
	.st0{fill:#FFFFFF;}
	.st1{fill:#010202;}
</style>
<g>
	<path id="XMLID_565_" class="st0" d="M452.2,108.4c-188.3,0-340.9,152.6-340.9,340.9s152.6,340.9,340.9,340.9
		s340.9-152.6,340.9-340.9S640.4,108.4,452.2,108.4"/>
	<path id="XMLID_561_" class="st1" d="M640.3,383.7v131.2h0v92.2c0,16.7-13.5,30.2-30.2,30.2H294.3c-12.2,0-23.2-7.4-27.9-18.7
		c-4.7-11.3-2.1-24.3,6.6-32.9l264.1-264.1H324.5v62h70.8L264.1,514.9V383.7h0v-92.2c0-16.7,13.5-30.2,30.2-30.2H610
		c12.2,0,23.2,7.4,27.9,18.7c4.7,11.3,2.1,24.3-6.6,32.9L367.3,576.9h212.5v-62H509L640.3,383.7z M452.2,108.4
		c-188.3,0-340.9,152.6-340.9,340.9s152.6,340.9,340.9,340.9s340.9-152.6,340.9-340.9S640.4,108.4,452.2,108.4 M452.2,48.5
		c54.1,0,106.6,10.6,156,31.5c47.7,20.2,90.6,49.1,127.4,85.9c36.8,36.8,65.7,79.6,85.9,127.4c20.9,49.4,31.5,101.9,31.5,156
		s-10.6,106.6-31.5,156c-20.2,47.7-49.1,90.6-85.9,127.4c-36.8,36.8-79.6,65.7-127.4,85.9c-49.4,20.9-101.9,31.5-156,31.5
		s-106.6-10.6-156-31.5c-47.7-20.2-90.6-49.1-127.4-85.9C132,695.9,103.1,653,82.9,605.3c-20.9-49.4-31.5-101.9-31.5-156
		s10.6-106.6,31.5-156c20.2-47.7,49.1-90.6,85.9-127.4c36.8-36.8,79.6-65.7,127.4-85.9C345.6,59.1,398.1,48.5,452.2,48.5L452.2,48.5
		z"/>
</g>
</svg>
